<svg width="714" height="715" viewBox="0 0 714 715" fill="none" xmlns="http://www.w3.org/2000/svg">
<path d="M407.387 82.319L60.8614 411.901C36.2141 435.342 46.1815 476.676 78.8113 486.3L537.499 621.61C570.129 631.242 600.938 601.968 592.956 568.867L480.793 103.975C472.818 70.9093 432.034 58.8784 407.387 82.319Z" fill="#FFF1C9"/>
<path d="M403.931 493.205H253.834C231.049 538.193 219.647 588.084 220.626 638.504L433.755 638.696C432.986 612.085 429.759 585.602 424.116 559.585C419.175 536.954 412.425 514.756 403.931 493.205Z" fill="#F9B800"/>
<path d="M390.822 312.556H270.827V440.469H390.822V312.556Z" fill="#262626"/>
<path d="M343.513 291.243H314.438C305.222 291.243 296.383 287.581 289.866 281.065C283.349 274.548 279.688 265.709 279.688 256.492V219.757C279.688 210.764 283.261 202.139 289.619 195.78C295.978 189.422 304.603 185.849 313.596 185.849H343.391C355.272 185.849 366.666 190.569 375.067 198.97C383.468 207.371 388.188 218.765 388.188 230.645V246.568C388.188 258.416 383.481 269.779 375.103 278.158C366.724 286.536 355.361 291.243 343.513 291.243Z" fill="#262626"/>
<path d="M379.705 278.962L397.505 220.114C397.754 219.292 398.18 218.534 398.755 217.896C399.329 217.257 400.038 216.753 400.829 216.42C401.621 216.086 402.476 215.932 403.335 215.967C404.193 216.002 405.033 216.226 405.795 216.623L425.016 226.619C425.85 227.052 426.567 227.681 427.106 228.451C427.645 229.222 427.99 230.111 428.112 231.043C428.234 231.975 428.129 232.923 427.807 233.806C427.484 234.689 426.953 235.481 426.258 236.115L379.705 278.962Z" fill="#D3B970"/>
<path d="M375.143 276.656L425.958 245.018C426.747 244.528 427.637 244.221 428.561 244.122C429.485 244.022 430.419 244.131 431.295 244.442C432.171 244.753 432.966 245.257 433.62 245.916C434.275 246.576 434.772 247.375 435.076 248.253L441.816 267.767C442.136 268.693 442.232 269.683 442.095 270.654C441.957 271.624 441.591 272.549 441.026 273.35C440.461 274.151 439.714 274.807 438.845 275.263C437.977 275.718 437.013 275.961 436.033 275.97L375.143 276.656Z" fill="#D3B970"/>
<path d="M390.822 280.918C388.769 280.918 386.762 280.31 385.054 279.169C383.347 278.028 382.017 276.407 381.231 274.51C380.445 272.613 380.239 270.525 380.64 268.511C381.041 266.498 382.029 264.648 383.481 263.196C384.933 261.744 386.783 260.755 388.797 260.355C390.811 259.954 392.898 260.16 394.795 260.946C396.692 261.731 398.313 263.062 399.454 264.769C400.595 266.476 401.204 268.484 401.204 270.537C401.2 273.289 400.105 275.927 398.159 277.874C396.213 279.82 393.574 280.915 390.822 280.918ZM390.822 263.011C389.334 263.011 387.879 263.453 386.641 264.28C385.404 265.106 384.439 266.282 383.869 267.657C383.3 269.032 383.151 270.545 383.441 272.005C383.732 273.465 384.448 274.806 385.501 275.858C386.553 276.911 387.894 277.627 389.354 277.918C390.814 278.208 392.327 278.059 393.702 277.49C395.077 276.92 396.252 275.955 397.079 274.718C397.906 273.48 398.348 272.025 398.348 270.537C398.344 268.542 397.55 266.63 396.139 265.22C394.729 263.809 392.817 263.015 390.822 263.011Z" fill="#262626"/>
<path d="M372.037 254.743C372.449 250.845 371.31 246.942 368.866 243.878C366.422 240.814 362.87 238.836 358.978 238.371L359.071 228.297C359.121 225.101 358.539 221.928 357.36 218.958C356.181 215.988 354.427 213.28 352.199 210.989C349.97 208.699 347.312 206.87 344.375 205.61C341.439 204.349 338.283 203.68 335.087 203.642L297.959 203.378C293.096 203.372 288.428 205.295 284.98 208.726C281.532 212.156 279.586 216.814 279.567 221.678L279.174 267.024C279.119 270.827 279.815 274.604 281.221 278.138C282.627 281.673 284.716 284.895 287.369 287.621C290.021 290.347 293.185 292.524 296.68 294.026C300.174 295.528 303.931 296.327 307.734 296.376H309.448L309.219 321.509L358.278 321.859L358.549 292.092H358.507L358.728 268.152C362.151 267.79 365.344 266.259 367.769 263.816C370.193 261.373 371.701 258.169 372.037 254.743Z" fill="white"/>
<path d="M467.491 380.443L408.651 415.129L445.193 490.699C445.193 490.699 461.687 522.015 492.617 507.335C498.858 504.318 504.423 500.067 508.976 494.839C513.529 489.611 516.975 483.515 519.107 476.919L550.901 380.443C550.901 380.443 597.611 364.585 604.537 323.773C604.804 322.479 604.826 321.147 604.601 319.846C604.248 317.9 603.36 316.09 602.038 314.619C602.512 313.542 602.894 312.427 603.18 311.285C603.823 308.693 604.437 306.165 602.338 304.023C601.464 303.078 600.26 302.505 598.975 302.425C597.69 302.345 596.424 302.764 595.44 303.595C595.926 300.939 595.198 298.597 593.562 297.569C592.89 297.173 592.113 296.991 591.335 297.048C587.643 297.269 584.959 302.331 584.195 303.745C581.067 309.457 574.463 319.117 564.681 332.662C564.681 332.662 578.754 313.577 571.264 308.322C569.029 306.758 566.359 308.95 564.888 310.507C562.168 313.363 561.118 317.311 559.098 320.595C556.433 324.715 552.872 328.178 548.68 330.727C542.076 334.925 534.765 337.153 528.738 342.272C525.995 344.579 523.549 347.217 521.456 350.126C519.007 353.568 518.143 357.631 516.029 361.108L483.321 414.622L467.491 380.443Z" fill="white"/>
<path d="M476.652 512.668C455.446 512.668 444.065 491.627 443.93 491.362L406.802 414.565L468.127 378.415L483.492 411.623L514.794 360.379C515.663 358.869 516.413 357.294 517.036 355.667C517.873 353.438 518.961 351.311 520.278 349.326C522.436 346.312 524.962 343.578 527.796 341.187C531.566 337.974 535.836 335.86 539.934 333.818C542.655 332.532 545.305 331.102 547.874 329.534C551.897 327.111 555.316 323.802 557.87 319.86C558.575 318.664 559.211 317.429 559.776 316.161C560.854 313.869 561.968 311.506 563.839 309.535C567.873 305.251 570.729 306.229 572.071 307.172C572.8 307.686 573.414 308.346 573.876 309.109C574.338 309.872 574.638 310.722 574.756 311.606C574.96 313.172 574.873 314.762 574.499 316.297C578.511 310.435 581.267 306.108 582.931 303.074L582.974 302.981C583.931 301.231 586.837 295.898 591.242 295.641C592.313 295.551 593.384 295.801 594.305 296.355C595.093 296.896 595.744 297.613 596.206 298.45C596.669 299.286 596.93 300.219 596.968 301.174C598.1 300.89 599.286 300.911 600.406 301.236C601.527 301.561 602.541 302.178 603.344 303.024C606.022 305.744 605.208 309.007 604.558 311.627C604.329 312.56 604.036 313.477 603.68 314.369C604.731 315.727 605.475 317.295 605.864 318.968C606.252 320.64 606.274 322.376 605.929 324.058C603.073 341.073 592.67 356.481 575.941 368.569C568.563 373.914 560.523 378.279 552.022 381.556L520.463 477.361C518.262 484.138 514.715 490.401 510.034 495.774C505.354 501.146 499.636 505.518 493.224 508.627C488.071 511.194 482.409 512.575 476.652 512.668ZM410.507 415.693L446.478 490.077C449.482 495.26 453.478 499.799 458.238 503.436C468.37 510.997 479.729 511.876 492.003 506.042C498.065 503.1 503.469 498.964 507.894 493.882C512.318 488.8 515.67 482.877 517.75 476.468L549.78 379.322L550.458 379.093C550.915 378.936 596.447 363.014 603.144 323.53C603.383 322.399 603.404 321.234 603.209 320.095C602.9 318.41 602.132 316.844 600.988 315.569L600.374 314.855L600.745 314.012C601.188 313.011 601.544 311.975 601.809 310.913C602.473 308.221 602.809 306.501 601.331 304.994C600.716 304.313 599.864 303.895 598.949 303.825C598.034 303.756 597.128 304.042 596.419 304.623L593.291 307.479L594.055 303.323C594.426 301.289 593.934 299.454 592.827 298.775C592.407 298.529 591.92 298.421 591.435 298.468C589.564 298.575 587.565 300.553 585.509 304.33L585.459 304.416C582.495 309.828 576.541 318.696 566.181 333.054L565.859 333.504L563.553 331.819L564.017 331.177C566.873 327.107 572.842 317.346 571.978 312.041C571.92 311.534 571.756 311.044 571.497 310.603C571.237 310.163 570.888 309.782 570.472 309.485C569.044 308.486 566.837 310.549 565.952 311.484C564.396 313.112 563.432 315.176 562.382 317.361C561.765 318.722 561.077 320.05 560.319 321.338C557.549 325.645 553.835 329.266 549.459 331.926C546.791 333.551 544.039 335.031 541.212 336.36C537.057 338.424 533.13 340.366 529.624 343.35C526.991 345.593 524.648 348.154 522.648 350.976C521.457 352.787 520.475 354.727 519.721 356.759C519.037 358.522 518.22 360.231 517.279 361.871L483.178 417.663L466.892 382.477L410.507 415.693Z" fill="#262626"/>
<path d="M357 260.448C356.803 260.458 356.605 260.458 356.407 260.448C355.254 260.33 354.162 259.874 353.268 259.136C352.375 258.398 351.72 257.412 351.386 256.302C351.053 255.192 351.056 254.008 351.396 252.9C351.735 251.791 352.395 250.809 353.293 250.076C354.19 249.342 355.285 248.892 356.439 248.781C357.593 248.67 358.753 248.903 359.774 249.452C360.795 250 361.631 250.839 362.175 251.862C362.72 252.885 362.949 254.047 362.833 255.2C362.687 256.644 362.01 257.983 360.934 258.957C359.858 259.932 358.459 260.473 357.007 260.476L357 260.448ZM357 251.58C356.418 251.58 355.849 251.749 355.362 252.066C354.874 252.383 354.489 252.835 354.253 253.367C354.017 253.899 353.941 254.487 354.033 255.062C354.125 255.636 354.382 256.171 354.772 256.603C355.162 257.034 355.669 257.343 356.232 257.492C356.794 257.64 357.387 257.623 357.94 257.441C358.493 257.259 358.981 256.921 359.345 256.468C359.709 256.014 359.934 255.464 359.992 254.886C360.069 254.093 359.83 253.301 359.325 252.684C358.821 252.067 358.093 251.675 357.3 251.594L357 251.58Z" fill="#262626"/>
<path d="M310.09 294.984L339.364 294.27C339.554 294.263 339.741 294.324 339.889 294.443C340.038 294.562 340.139 294.731 340.174 294.918C340.208 295.105 340.174 295.298 340.078 295.463C339.982 295.627 339.83 295.751 339.65 295.812L309.969 306.522L310.09 294.984Z" fill="#262626"/>
<path d="M352.616 256.735C352.261 256.737 351.918 256.606 351.654 256.369C351.39 256.131 351.224 255.804 351.188 255.45C351.027 253.866 351.286 252.266 351.939 250.814C352.592 249.361 353.616 248.106 354.908 247.175C356.149 246.328 357.574 245.791 359.064 245.609C360.555 245.426 362.068 245.603 363.476 246.125C363.658 246.188 363.826 246.287 363.969 246.416C364.112 246.545 364.228 246.702 364.308 246.877C364.389 247.052 364.434 247.241 364.44 247.434C364.445 247.626 364.412 247.818 364.342 247.998C364.271 248.177 364.165 248.34 364.03 248.478C363.895 248.615 363.733 248.724 363.555 248.797C363.377 248.87 363.185 248.906 362.993 248.904C362.8 248.901 362.61 248.859 362.433 248.781C361.469 248.436 360.438 248.32 359.421 248.444C358.405 248.568 357.431 248.928 356.579 249.495C355.695 250.132 354.994 250.991 354.548 251.985C354.102 252.979 353.925 254.073 354.037 255.157C354.056 255.344 354.037 255.532 353.983 255.712C353.929 255.892 353.84 256.059 353.722 256.204C353.603 256.349 353.457 256.47 353.292 256.558C353.126 256.647 352.945 256.702 352.759 256.721L352.616 256.735Z" fill="#262626"/>
<path d="M208.816 376.266L267.657 410.952L231.115 486.522C231.115 486.522 214.614 517.838 183.691 503.158C177.448 500.143 171.882 495.892 167.329 490.664C162.776 485.436 159.331 479.339 157.201 472.742L125.4 376.266C125.4 376.266 78.69 360.408 71.7713 319.596C71.5037 318.302 71.4819 316.97 71.7071 315.669C72.0563 313.724 72.9388 311.915 74.256 310.442C73.7815 309.365 73.3993 308.25 73.1136 307.108C72.471 304.523 71.857 301.989 73.9633 299.847C74.8362 298.903 76.0393 298.332 77.3225 298.252C78.6057 298.172 79.8703 298.59 80.8534 299.418C80.3679 296.762 81.1033 294.42 82.7312 293.392C83.405 292.999 84.1809 292.818 84.9589 292.871C88.6503 293.092 91.3349 298.154 92.0989 299.568C95.2334 305.28 101.838 314.948 111.613 328.485C111.613 328.485 97.5396 309.4 105.029 304.145C107.264 302.581 109.935 304.78 111.413 306.33C114.133 309.186 115.175 313.141 117.196 316.419C119.864 320.535 123.424 323.998 127.613 326.55C134.218 330.749 141.529 332.976 147.562 338.096C150.304 340.404 152.75 343.042 154.845 345.95C157.287 349.391 158.158 353.447 160.272 356.924L192.973 410.438L208.816 376.266Z" fill="white"/>
<path d="M199.656 508.492C193.896 508.404 188.23 507.023 183.077 504.45C176.666 501.341 170.949 496.969 166.27 491.596C161.59 486.224 158.044 479.961 155.845 473.184L124.236 377.38C115.734 374.106 107.693 369.74 100.317 364.392C83.5951 352.311 73.2278 336.896 70.3289 319.831C69.9905 318.158 70.0168 316.431 70.4062 314.769C70.7956 313.107 71.5388 311.548 72.5852 310.2C72.2368 309.304 71.9435 308.389 71.707 307.458C71.0572 304.83 70.279 301.574 72.9208 298.847C73.7253 298.003 74.7392 297.387 75.8592 297.062C76.9793 296.737 78.1654 296.715 79.2968 296.998C79.3365 296.043 79.5979 295.11 80.0601 294.274C80.5223 293.437 81.1727 292.72 81.96 292.178C82.8812 291.626 83.9525 291.376 85.0231 291.464C89.4284 291.728 92.3344 297.055 93.2912 298.804L93.3412 298.897C95.0333 301.989 97.7465 306.265 101.773 312.134C101.396 310.596 101.309 309 101.516 307.429C101.632 306.544 101.93 305.693 102.392 304.93C102.854 304.166 103.47 303.507 104.201 302.995C105.543 302.053 108.399 301.11 112.434 305.359C114.297 307.329 115.418 309.7 116.496 311.985C117.058 313.254 117.695 314.489 118.403 315.683C120.945 319.624 124.351 322.935 128.363 325.365C130.934 326.929 133.584 328.359 136.303 329.649C140.429 331.691 144.699 333.812 148.441 337.017C151.275 339.41 153.803 342.144 155.966 345.157C157.281 347.141 158.366 349.268 159.201 351.497C159.83 353.125 160.582 354.702 161.45 356.217L192.759 407.453L208.124 374.245L269.456 410.402L232.328 487.15C232.243 487.443 220.854 508.492 199.656 508.492ZM77.7617 299.647C76.7165 299.667 75.7213 300.098 74.9914 300.846C73.5062 302.353 73.8418 304.081 74.513 306.765C74.7727 307.827 75.1263 308.864 75.5697 309.864L75.941 310.706L75.3341 311.42C74.1844 312.692 73.415 314.26 73.1135 315.947C72.9147 317.069 72.9341 318.218 73.1707 319.332C79.8823 358.901 125.4 374.788 125.864 374.945L126.535 375.174L158.558 472.32C160.636 478.731 163.988 484.656 168.412 489.739C172.836 494.822 178.242 498.959 184.305 501.901C196.607 507.742 207.995 506.849 218.141 499.231C222.885 495.597 226.864 491.062 229.851 485.886L265.794 411.545L209.452 378.329L193.166 413.472L159.065 357.673C158.119 356.036 157.302 354.326 156.623 352.561C155.866 350.53 154.884 348.591 153.696 346.778C151.668 343.976 149.3 341.436 146.648 339.216C143.143 336.232 139.223 334.29 135.067 332.226C132.255 330.896 129.517 329.416 126.863 327.792C122.485 325.132 118.769 321.511 115.996 317.204C115.237 315.918 114.55 314.59 113.94 313.227C112.912 311.042 111.941 308.986 110.37 307.351C109.485 306.415 107.271 304.352 105.843 305.351C105.428 305.649 105.08 306.03 104.82 306.47C104.561 306.911 104.396 307.4 104.337 307.908C103.473 313.213 109.392 322.902 112.284 327.021L112.762 327.685L110.456 329.37L110.134 328.921C99.7529 314.526 93.7981 305.687 90.8564 300.289L90.8065 300.196C88.743 296.419 86.7509 294.449 84.8731 294.334C84.3885 294.292 83.9024 294.399 83.4808 294.641C82.3741 295.355 81.8815 297.155 82.2599 299.197L83.0167 303.345L79.8965 300.489C79.317 299.948 78.5542 299.647 77.7617 299.647Z" fill="#262626"/>
<path d="M285.686 250.616C287.283 250.616 288.577 249.321 288.577 247.724C288.577 246.127 287.283 244.833 285.686 244.833C284.089 244.833 282.794 246.127 282.794 247.724C282.794 249.321 284.089 250.616 285.686 250.616Z" fill="#262626"/>
<path d="M316.702 250.145C318.299 250.145 319.594 248.85 319.594 247.253C319.594 245.656 318.299 244.361 316.702 244.361C315.105 244.361 313.81 245.656 313.81 247.253C313.81 248.85 315.105 250.145 316.702 250.145Z" fill="#262626"/>
<path d="M297.124 260.512C296.961 260.511 296.799 260.482 296.646 260.427C294.504 259.713 292.362 258.656 292.362 256.785C292.386 256.435 292.479 256.094 292.636 255.78C292.793 255.467 293.01 255.187 293.275 254.957C293.46 254.77 293.634 254.572 293.797 254.365C294.521 253.427 294.955 252.298 295.046 251.116L296.246 238.585C296.282 238.207 296.467 237.858 296.76 237.615C297.053 237.373 297.431 237.257 297.809 237.293C298.188 237.329 298.537 237.514 298.779 237.807C299.022 238.1 299.138 238.478 299.102 238.857L297.888 251.395C297.745 253.108 297.11 254.745 296.06 256.107C295.839 256.393 295.646 256.607 295.482 256.785C296.156 257.185 296.875 257.503 297.624 257.735C297.943 257.845 298.213 258.066 298.385 258.357C298.558 258.647 298.621 258.99 298.565 259.323C298.508 259.656 298.335 259.959 298.077 260.177C297.818 260.394 297.491 260.513 297.153 260.512H297.124Z" fill="#262626"/>
<path d="M301.437 272.993C299.249 272.932 297.115 272.294 295.253 271.144C295.088 271.045 294.944 270.914 294.831 270.759C294.718 270.604 294.637 270.427 294.593 270.24C294.55 270.053 294.544 269.859 294.578 269.669C294.611 269.48 294.682 269.299 294.787 269.138C294.892 268.977 295.028 268.838 295.188 268.731C295.348 268.624 295.527 268.55 295.716 268.514C295.905 268.478 296.099 268.481 296.287 268.521C296.475 268.562 296.653 268.641 296.81 268.752C296.86 268.787 299.801 270.637 302.693 270.001C303.484 269.801 304.226 269.441 304.873 268.944C305.52 268.447 306.059 267.822 306.456 267.11C306.659 266.789 306.98 266.563 307.35 266.48C307.719 266.397 308.107 266.464 308.427 266.667C308.747 266.869 308.973 267.191 309.056 267.56C309.139 267.93 309.072 268.317 308.869 268.637C308.137 269.965 307.06 271.07 305.752 271.837C304.444 272.604 302.953 273.003 301.437 272.993Z" fill="#262626"/>
<path d="M253.834 493.205L241.339 432.515C239.213 422.194 239.753 411.502 242.91 401.448L270.827 312.548H295.725L301.437 325.229C313.696 352.454 352.552 351.868 363.99 324.294L368.86 312.548H390.822L418.333 402.934C421.883 414.584 422.059 427.002 418.84 438.748L403.931 493.205H253.834Z" fill="#F9B800"/>
<path d="M333.795 224.077H320.001C315.736 224.077 311.646 222.383 308.631 219.367C305.615 216.352 303.921 212.262 303.921 207.997V197.659H333.795V224.077Z" fill="#262626"/>
<path d="M390.822 312.555L420.146 410.495L475.295 377.958C469.202 366.784 462.432 355.992 455.025 345.642C441.952 327.392 435.176 318.175 423.695 313.512C411.492 308.514 399.233 310.249 390.822 312.555Z" fill="#262626"/>
<path d="M372.115 239.656H347.34C344.951 239.655 342.585 239.184 340.378 238.269C338.171 237.353 336.166 236.013 334.478 234.323C332.789 232.633 331.45 230.626 330.536 228.419C329.623 226.211 329.153 223.845 329.154 221.456V213.231H372.123L372.115 239.656Z" fill="#262626"/>
<path d="M363.362 197.659H320.665V224.084H363.362V197.659Z" fill="#262626"/>
<path d="M383.853 339.181C402.616 339.181 417.826 323.971 417.826 305.208C417.826 286.446 402.616 271.236 383.853 271.236C365.091 271.236 349.881 286.446 349.881 305.208C349.881 323.971 365.091 339.181 383.853 339.181Z" fill="#262626"/>
<path d="M359.021 362.864C372.913 362.864 384.175 351.602 384.175 337.71C384.175 323.818 372.913 312.556 359.021 312.556C345.128 312.556 333.866 323.818 333.866 337.71C333.866 351.602 345.128 362.864 359.021 362.864Z" fill="#262626"/>
<path d="M404.181 364.292C418.073 364.292 429.335 353.03 429.335 339.138C429.335 325.245 418.073 313.983 404.181 313.983C390.289 313.983 379.027 325.245 379.027 339.138C379.027 353.03 390.289 364.292 404.181 364.292Z" fill="#262626"/>
<path d="M352.916 449.601H308.726C302.136 449.593 295.817 446.971 291.158 442.31C286.498 437.649 283.878 431.33 283.872 424.739V394.851C283.872 391.651 285.142 388.581 287.403 386.316C289.664 384.052 292.731 382.776 295.932 382.771H365.711C368.91 382.774 371.977 384.047 374.239 386.309C376.501 388.571 377.774 391.638 377.777 394.837V424.725C377.774 431.319 375.154 437.642 370.492 442.306C365.831 446.97 359.51 449.593 352.916 449.601ZM295.932 385.627C293.491 385.63 291.151 386.602 289.425 388.329C287.7 390.056 286.73 392.396 286.728 394.837V424.725C286.734 430.558 289.053 436.151 293.177 440.277C297.301 444.402 302.893 446.723 308.726 446.731H352.916C358.75 446.725 364.344 444.405 368.47 440.279C372.595 436.154 374.916 430.56 374.921 424.725V394.851C374.921 392.407 373.951 390.063 372.224 388.333C370.498 386.604 368.155 385.63 365.711 385.627H295.932Z" fill="white"/>
<path d="M379.027 397.1C392.919 397.1 404.181 385.839 404.181 371.946C404.181 358.054 392.919 346.792 379.027 346.792C365.135 346.792 353.873 358.054 353.873 371.946C353.873 385.839 365.135 397.1 379.027 397.1Z" fill="#262626"/>
<path d="M467.277 439.755C467.018 439.754 466.765 439.682 466.543 439.548C466.322 439.415 466.141 439.223 466.02 438.994C465.899 438.765 465.842 438.508 465.856 438.25C465.87 437.991 465.954 437.741 466.099 437.527L482.128 413.843C482.233 413.688 482.368 413.554 482.525 413.451C482.681 413.347 482.857 413.275 483.041 413.24C483.225 413.204 483.415 413.205 483.599 413.242C483.783 413.28 483.958 413.353 484.113 413.458C484.269 413.563 484.402 413.698 484.506 413.854C484.61 414.011 484.681 414.186 484.717 414.371C484.753 414.555 484.752 414.744 484.715 414.928C484.677 415.112 484.604 415.287 484.499 415.443L468.462 439.126C468.331 439.32 468.155 439.479 467.948 439.588C467.742 439.698 467.511 439.755 467.277 439.755Z" fill="#262626"/>
<path d="M586.501 344.929C586.212 344.929 585.931 344.843 585.692 344.68C585.454 344.517 585.271 344.286 585.166 344.017C585.062 343.748 585.041 343.454 585.108 343.173C585.174 342.892 585.324 342.638 585.537 342.444C594.326 334.433 600.374 314.941 600.431 314.748C600.486 314.568 600.576 314.401 600.695 314.256C600.814 314.111 600.961 313.992 601.127 313.903C601.293 313.815 601.474 313.76 601.661 313.742C601.848 313.724 602.037 313.743 602.216 313.798C602.396 313.853 602.563 313.943 602.708 314.062C602.852 314.182 602.972 314.328 603.061 314.494C603.149 314.66 603.203 314.841 603.222 315.028C603.24 315.215 603.221 315.404 603.166 315.583C602.909 316.411 596.833 336.011 587.458 344.557C587.196 344.795 586.855 344.928 586.501 344.929Z" fill="#262626"/>
<path d="M577.626 337.203C577.33 337.204 577.04 337.113 576.798 336.943C576.556 336.772 576.373 336.531 576.274 336.252C576.175 335.972 576.165 335.669 576.246 335.384C576.328 335.099 576.495 334.847 576.726 334.661C584.859 328.064 593.998 303.345 594.091 303.102C594.236 302.769 594.503 302.504 594.838 302.361C595.172 302.218 595.548 302.208 595.889 302.333C596.231 302.458 596.512 302.708 596.675 303.033C596.838 303.357 596.872 303.732 596.768 304.081C596.383 305.13 587.265 329.785 578.526 336.882C578.271 337.089 577.954 337.202 577.626 337.203Z" fill="#262626"/>
<path d="M209.023 435.606C208.791 435.606 208.563 435.55 208.358 435.442C208.152 435.333 207.976 435.177 207.845 434.985L191.809 411.295C191.695 411.14 191.613 410.964 191.569 410.776C191.524 410.589 191.518 410.395 191.551 410.205C191.583 410.016 191.654 409.835 191.758 409.673C191.863 409.511 191.998 409.372 192.158 409.264C192.317 409.157 192.497 409.082 192.686 409.045C192.874 409.009 193.069 409.01 193.257 409.051C193.445 409.091 193.623 409.169 193.78 409.28C193.938 409.39 194.071 409.532 194.172 409.695L210.209 433.379C210.354 433.594 210.438 433.844 210.452 434.103C210.465 434.362 210.408 434.62 210.286 434.849C210.164 435.078 209.983 435.27 209.76 435.403C209.538 435.537 209.283 435.607 209.023 435.606Z" fill="#262626"/>
<path d="M89.7998 340.759C89.4458 340.758 89.1049 340.626 88.843 340.387C79.4753 331.819 73.392 312.242 73.135 311.413C73.0693 311.231 73.0413 311.038 73.0526 310.845C73.0639 310.652 73.1144 310.463 73.2009 310.29C73.2874 310.117 73.4081 309.963 73.5558 309.838C73.7035 309.713 73.875 309.62 74.06 309.563C74.2449 309.506 74.4395 309.488 74.6318 309.509C74.8241 309.53 75.0102 309.589 75.1788 309.684C75.3473 309.779 75.4948 309.907 75.6124 310.061C75.7299 310.215 75.815 310.39 75.8625 310.578C75.9267 310.771 81.9743 330.263 90.7565 338.281C90.9674 338.476 91.1148 338.729 91.1795 339.009C91.2442 339.288 91.2231 339.581 91.1191 339.849C91.015 340.116 90.8328 340.346 90.5962 340.508C90.3596 340.671 90.0796 340.758 89.7926 340.759H89.7998Z" fill="#262626"/>
<path d="M98.6677 333.026C98.3398 333.025 98.0222 332.912 97.7681 332.705C89.0216 325.615 79.9181 300.953 79.5182 299.911C79.4535 299.735 79.4242 299.547 79.4319 299.36C79.4395 299.172 79.4841 298.988 79.563 298.817C79.6419 298.647 79.7536 298.494 79.8917 298.367C80.0298 298.239 80.1916 298.141 80.3679 298.076C80.5442 298.011 80.7314 297.982 80.9191 297.989C81.1067 297.997 81.2909 298.042 81.4613 298.121C81.6317 298.2 81.7849 298.311 81.9121 298.449C82.0394 298.587 82.1382 298.749 82.2029 298.925C82.2957 299.175 91.4277 323.915 99.5673 330.491C99.7956 330.678 99.9607 330.93 100.04 331.213C100.119 331.497 100.109 331.798 100.011 332.076C99.9121 332.353 99.7302 332.594 99.4898 332.764C99.2494 332.934 98.9622 333.026 98.6677 333.026Z" fill="#262626"/>
<path d="M327.19 588.061C326.811 588.061 326.448 588.019 326.18 587.944C325.912 587.87 325.762 587.769 325.762 587.664V568.457C325.762 568.352 325.912 568.251 326.18 568.177C326.448 568.102 326.811 568.061 327.19 568.061C327.568 568.061 327.932 568.102 328.199 568.177C328.467 568.251 328.618 568.352 328.618 568.457V587.664C328.618 587.769 328.467 587.87 328.199 587.944C327.932 588.019 327.568 588.061 327.19 588.061Z" fill="white"/>
<path d="M327.19 527.712C326.812 527.712 326.449 527.562 326.181 527.294C325.913 527.026 325.762 526.663 325.762 526.284V493.205C325.762 492.826 325.913 492.463 326.181 492.195C326.449 491.927 326.812 491.777 327.19 491.777C327.569 491.777 327.932 491.927 328.2 492.195C328.468 492.463 328.618 492.826 328.618 493.205V526.284C328.618 526.663 328.468 527.026 328.2 527.294C327.932 527.562 327.569 527.712 327.19 527.712Z" fill="white"/>
<path d="M416.119 530.019C416.036 530.026 415.952 530.026 415.869 530.019C398.226 526.92 389.023 517.167 384.418 509.477C381.398 504.561 379.415 499.079 378.591 493.369C378.573 493.181 378.591 492.992 378.645 492.812C378.7 492.631 378.789 492.463 378.909 492.317C379.028 492.171 379.175 492.051 379.341 491.961C379.507 491.872 379.689 491.817 379.877 491.798C380.064 491.779 380.253 491.798 380.434 491.852C380.614 491.907 380.782 491.996 380.928 492.115C381.074 492.235 381.195 492.382 381.284 492.548C381.373 492.714 381.429 492.896 381.447 493.083C382.272 498.395 384.14 503.491 386.945 508.077C393.214 518.416 403.117 524.842 416.383 527.177C416.762 527.209 417.113 527.39 417.358 527.681C417.603 527.971 417.722 528.347 417.69 528.726C417.658 529.105 417.476 529.455 417.186 529.7C416.895 529.945 416.519 530.065 416.141 530.033L416.119 530.019Z" fill="white"/>
<path d="M244.288 531.918C242.156 531.911 240.026 531.77 237.912 531.497C237.533 531.448 237.189 531.251 236.956 530.95C236.722 530.648 236.618 530.265 236.666 529.886C236.714 529.508 236.911 529.164 237.213 528.93C237.515 528.696 237.897 528.592 238.276 528.641C248.9 530.004 257.454 527.877 263.702 522.336C275.247 512.09 275.24 493.383 275.24 493.198C275.24 492.819 275.39 492.456 275.658 492.188C275.926 491.92 276.289 491.77 276.668 491.77C277.047 491.77 277.41 491.92 277.678 492.188C277.945 492.456 278.096 492.819 278.096 493.198C278.096 494.011 278.096 513.361 265.608 524.478C260.039 529.426 252.885 531.918 244.288 531.918Z" fill="white"/>
<path d="M200.291 375.152L243.374 399.971L270.827 312.556C270.827 312.556 232.764 301.946 200.291 375.152Z" fill="#262626"/>
<path d="M218.048 287.559H107.378C101.834 287.553 96.5176 285.348 92.5969 281.427C88.6762 277.506 86.471 272.19 86.4654 266.646V178.11C86.4616 175.359 87.0001 172.634 88.05 170.091C89.0999 167.548 90.6407 165.238 92.5843 163.291C94.5279 161.344 96.8361 159.799 99.377 158.745C101.918 157.691 104.642 157.147 107.393 157.146H218.063C223.607 157.152 228.923 159.357 232.844 163.278C236.765 167.199 238.97 172.515 238.976 178.06V266.596C238.98 269.347 238.441 272.071 237.391 274.614C236.341 277.157 234.8 279.468 232.857 281.414C230.913 283.361 228.605 284.906 226.064 285.96C223.523 287.015 220.799 287.558 218.048 287.559ZM107.393 160.002C102.605 160.008 98.0158 161.912 94.6307 165.298C91.2456 168.683 89.3413 173.272 89.3356 178.06V266.596C89.3413 271.383 91.2456 275.972 94.6307 279.358C98.0158 282.743 102.605 284.647 107.393 284.653H218.063C222.851 284.649 227.441 282.745 230.827 279.36C234.212 275.974 236.116 271.383 236.12 266.596V178.06C236.116 173.269 234.21 168.676 230.822 165.29C227.433 161.904 222.839 160.002 218.048 160.002H107.393Z" fill="#262626"/>
<path d="M226.338 207.705H188.867C188.488 207.705 188.125 207.554 187.857 207.286C187.59 207.019 187.439 206.655 187.439 206.277C187.439 205.898 187.59 205.535 187.857 205.267C188.125 204.999 188.488 204.849 188.867 204.849H226.338C226.717 204.849 227.08 204.999 227.348 205.267C227.615 205.535 227.766 205.898 227.766 206.277C227.766 206.655 227.615 207.019 227.348 207.286C227.08 207.554 226.717 207.705 226.338 207.705Z" fill="#262626"/>
<path d="M226.338 222.456H188.867C188.488 222.456 188.125 222.306 187.857 222.038C187.59 221.77 187.439 221.407 187.439 221.028C187.439 220.649 187.59 220.286 187.857 220.018C188.125 219.751 188.488 219.6 188.867 219.6H226.338C226.717 219.6 227.08 219.751 227.348 220.018C227.615 220.286 227.766 220.649 227.766 221.028C227.766 221.407 227.615 221.77 227.348 222.038C227.08 222.306 226.717 222.456 226.338 222.456Z" fill="#262626"/>
<path d="M216.563 237.2H188.867C188.488 237.2 188.125 237.05 187.857 236.782C187.59 236.514 187.439 236.151 187.439 235.772C187.439 235.394 187.59 235.03 187.857 234.762C188.125 234.495 188.488 234.344 188.867 234.344H216.563C216.942 234.344 217.305 234.495 217.573 234.762C217.841 235.03 217.991 235.394 217.991 235.772C217.991 236.151 217.841 236.514 217.573 236.782C217.305 237.05 216.942 237.2 216.563 237.2Z" fill="#262626"/>
<path d="M167.44 251.23H118.524L114.062 235.522H170.468L167.44 251.23ZM120.652 248.374H165.084L166.99 238.378H117.81L120.652 248.374Z" fill="#262626"/>
<path d="M143.471 251.23C143.092 251.23 142.729 251.08 142.461 250.812C142.194 250.544 142.043 250.181 142.043 249.802V236.95C142.043 236.571 142.194 236.208 142.461 235.94C142.729 235.672 143.092 235.522 143.471 235.522C143.85 235.522 144.213 235.672 144.481 235.94C144.749 236.208 144.899 236.571 144.899 236.95V249.802C144.899 250.181 144.749 250.544 144.481 250.812C144.213 251.08 143.85 251.23 143.471 251.23Z" fill="#262626"/>
<path d="M164.841 253.722C166.986 253.722 168.725 251.967 168.725 249.802C168.725 247.637 166.986 245.882 164.841 245.882C162.696 245.882 160.957 247.637 160.957 249.802C160.957 251.967 162.696 253.722 164.841 253.722Z" fill="#262626"/>
<path d="M143.443 253.722C145.607 253.722 147.362 251.967 147.362 249.802C147.362 247.637 145.607 245.882 143.443 245.882C141.278 245.882 139.523 247.637 139.523 249.802C139.523 251.967 141.278 253.722 143.443 253.722Z" fill="#262626"/>
<path d="M121.059 253.722C123.2 253.722 124.936 251.967 124.936 249.802C124.936 247.637 123.2 245.882 121.059 245.882C118.917 245.882 117.182 247.637 117.182 249.802C117.182 251.967 118.917 253.722 121.059 253.722Z" fill="#262626"/>
<path d="M108.385 210.025C108.164 210.026 107.946 209.976 107.748 209.878C107.549 209.78 107.377 209.637 107.243 209.461L99.2461 198.887C98.8765 198.394 98.6513 197.808 98.5956 197.195C98.54 196.581 98.6561 195.964 98.931 195.413C99.2058 194.862 99.6286 194.398 100.152 194.073C100.676 193.749 101.279 193.576 101.895 193.575H126.321C127.264 193.575 128.193 193.799 129.032 194.229C129.871 194.658 130.596 195.281 131.148 196.045L142.186 207.576C142.415 207.854 142.531 208.209 142.51 208.568C142.489 208.928 142.333 209.267 142.073 209.516C141.812 209.765 141.468 209.907 141.107 209.913C140.747 209.919 140.398 209.788 140.13 209.547L128.841 197.773C128.557 197.359 128.177 197.021 127.733 196.787C127.289 196.553 126.794 196.431 126.292 196.431H101.866C101.78 196.429 101.695 196.453 101.622 196.498C101.548 196.544 101.489 196.61 101.452 196.688C101.414 196.764 101.398 196.849 101.406 196.933C101.413 197.018 101.444 197.098 101.495 197.166L109.521 207.733C109.635 207.883 109.719 208.053 109.767 208.235C109.815 208.417 109.827 208.606 109.802 208.793C109.777 208.979 109.715 209.159 109.62 209.321C109.525 209.484 109.399 209.626 109.249 209.74C109 209.927 108.697 210.027 108.385 210.025Z" fill="#262626"/>
<path d="M143.471 238.692H170.132L176.786 208.833C176.889 208.359 176.884 207.869 176.772 207.397C176.659 206.926 176.442 206.486 176.136 206.11C175.83 205.734 175.443 205.432 175.005 205.226C174.566 205.02 174.087 204.915 173.602 204.92H143.471V238.692Z" fill="#FFE18B"/>
<path d="M114.597 238.692H143.471V204.92H107.814C107.284 204.918 106.761 205.043 106.289 205.284C105.817 205.525 105.409 205.875 105.099 206.305C104.789 206.735 104.586 207.232 104.507 207.756C104.428 208.28 104.475 208.816 104.644 209.318L114.597 238.692Z" fill="#FFE18B"/>
<path d="M143.471 234.715C143.092 234.715 142.729 234.565 142.461 234.297C142.194 234.029 142.043 233.666 142.043 233.287V208.554C142.043 208.176 142.194 207.813 142.461 207.545C142.729 207.277 143.092 207.126 143.471 207.126C143.85 207.126 144.213 207.277 144.481 207.545C144.749 207.813 144.899 208.176 144.899 208.554V233.259C144.903 233.449 144.869 233.638 144.799 233.814C144.729 233.991 144.624 234.151 144.491 234.287C144.358 234.423 144.2 234.531 144.024 234.604C143.849 234.678 143.661 234.715 143.471 234.715Z" fill="#262626"/>
<path d="M132.247 525.171H86.394C84.0995 525.169 81.8995 524.256 80.2771 522.634C78.6546 521.011 77.7422 518.811 77.7404 516.517V470.671C77.7441 468.378 78.6573 466.18 80.2796 464.559C81.9018 462.938 84.1008 462.026 86.394 462.024H132.233C134.527 462.026 136.727 462.939 138.35 464.561C139.972 466.184 140.885 468.384 140.887 470.678V516.524C140.883 518.815 139.972 521.011 138.352 522.631C136.733 524.252 134.538 525.165 132.247 525.171ZM86.394 464.88C84.857 464.882 83.3834 465.494 82.2965 466.581C81.2097 467.667 80.5982 469.141 80.5964 470.678V516.524C80.5982 518.061 81.2097 519.535 82.2965 520.622C83.3834 521.708 84.857 522.32 86.394 522.322H132.233C133.77 522.32 135.243 521.708 136.33 520.622C137.417 519.535 138.029 518.061 138.031 516.524V470.671C138.029 469.134 137.417 467.66 136.33 466.573C135.243 465.487 133.77 464.875 132.233 464.873L86.394 464.88Z" fill="#262626"/>
<path d="M98.9746 488.592C97.5506 488.594 96.1581 488.173 94.9735 487.383C93.7888 486.592 92.8652 485.468 92.3196 484.153C91.774 482.837 91.6309 481.39 91.9083 479.993C92.1858 478.596 92.8714 477.313 93.8784 476.306C94.8853 475.299 96.1684 474.614 97.5652 474.336C98.9619 474.059 100.41 474.202 101.725 474.747C103.04 475.293 104.164 476.217 104.955 477.401C105.745 478.586 106.166 479.978 106.165 481.403C106.163 483.309 105.405 485.137 104.057 486.484C102.709 487.832 100.881 488.591 98.9746 488.592ZM98.9746 477.061C98.1157 477.06 97.2757 477.313 96.5609 477.789C95.8461 478.266 95.2885 478.943 94.9589 479.736C94.6292 480.529 94.5422 481.402 94.7089 482.245C94.8756 483.088 95.2885 483.862 95.8953 484.47C96.5022 485.077 97.2757 485.492 98.118 485.66C98.9603 485.828 99.8335 485.742 100.627 485.414C101.421 485.085 102.099 484.529 102.577 483.815C103.054 483.101 103.309 482.261 103.309 481.403C103.309 480.252 102.852 479.149 102.04 478.335C101.227 477.521 100.125 477.063 98.9746 477.061Z" fill="#262626"/>
<path d="M119.681 510.69C118.259 510.69 116.869 510.269 115.686 509.479C114.504 508.689 113.582 507.566 113.038 506.252C112.494 504.938 112.351 503.493 112.629 502.098C112.906 500.703 113.591 499.422 114.597 498.416C115.602 497.411 116.883 496.726 118.278 496.449C119.673 496.171 121.118 496.314 122.432 496.858C123.746 497.402 124.869 498.324 125.659 499.506C126.449 500.688 126.871 502.078 126.871 503.501C126.869 505.407 126.111 507.235 124.763 508.583C123.415 509.93 121.587 510.689 119.681 510.69ZM119.681 499.167C118.824 499.167 117.986 499.421 117.273 499.897C116.56 500.373 116.005 501.05 115.677 501.842C115.349 502.634 115.263 503.505 115.43 504.346C115.597 505.187 116.01 505.959 116.616 506.565C117.222 507.171 117.994 507.584 118.835 507.751C119.676 507.918 120.547 507.833 121.339 507.505C122.131 507.177 122.808 506.621 123.284 505.908C123.76 505.196 124.015 504.358 124.015 503.501C124.017 502.93 123.906 502.365 123.689 501.838C123.472 501.31 123.153 500.831 122.75 500.427C122.348 500.023 121.869 499.702 121.343 499.484C120.816 499.265 120.251 499.152 119.681 499.152V499.167Z" fill="#262626"/>
<path d="M95.676 514.925C95.4239 514.92 95.1775 514.849 94.962 514.718C94.6387 514.522 94.4061 514.207 94.3151 513.84C94.2241 513.473 94.2821 513.085 94.4765 512.761L118.453 472.956C118.649 472.631 118.966 472.398 119.334 472.306C119.702 472.215 120.091 472.274 120.416 472.47C120.741 472.666 120.974 472.983 121.065 473.352C121.157 473.72 121.098 474.109 120.902 474.434L96.9255 514.232C96.7964 514.447 96.6129 514.624 96.3936 514.746C96.1742 514.868 95.9267 514.929 95.676 514.925Z" fill="#262626"/>
<path d="M641.115 538.287H578.997C574.769 538.283 570.716 536.602 567.727 533.613C564.738 530.624 563.057 526.57 563.053 522.343V399.414C563.061 395.194 564.739 391.149 567.722 388.163C570.705 385.178 574.748 383.496 578.968 383.484H641.086C645.314 383.488 649.367 385.169 652.356 388.158C655.345 391.148 657.026 395.201 657.03 399.428V522.343C657.024 526.565 655.347 530.613 652.364 533.601C649.381 536.589 645.337 538.273 641.115 538.287ZM578.968 386.34C575.498 386.344 572.172 387.724 569.718 390.178C567.264 392.631 565.884 395.958 565.881 399.428V522.343C565.884 525.813 567.264 529.14 569.718 531.593C572.172 534.047 575.498 535.427 578.968 535.431H641.086C644.556 535.427 647.883 534.047 650.336 531.593C652.79 529.14 654.17 525.813 654.174 522.343V399.414C654.166 395.951 652.789 392.633 650.342 390.183C647.895 387.733 644.577 386.352 641.115 386.34H578.968Z" fill="#262626"/>
<path d="M629.013 475.141H591.071C587.419 475.141 584.459 478.101 584.459 481.752V504.665C584.459 508.316 587.419 511.276 591.071 511.276H629.013C632.664 511.276 635.624 508.316 635.624 504.665V481.752C635.624 478.101 632.664 475.141 629.013 475.141Z" fill="#FFE18B"/>
<path d="M634.289 489.528H585.901C585.523 489.528 585.159 489.377 584.891 489.11C584.624 488.842 584.473 488.479 584.473 488.1C584.473 487.721 584.624 487.358 584.891 487.09C585.159 486.822 585.523 486.672 585.901 486.672H634.289C634.668 486.672 635.031 486.822 635.299 487.09C635.567 487.358 635.717 487.721 635.717 488.1C635.717 488.479 635.567 488.842 635.299 489.11C635.031 489.377 634.668 489.528 634.289 489.528Z" fill="#262626"/>
<path d="M600.817 506.821H594.612C593.296 506.772 592.05 506.214 591.136 505.265C590.222 504.317 589.712 503.051 589.712 501.734C589.712 500.417 590.222 499.151 591.136 498.202C592.05 497.253 593.296 496.696 594.612 496.646H600.817C602.133 496.696 603.379 497.253 604.293 498.202C605.206 499.151 605.717 500.417 605.717 501.734C605.717 503.051 605.206 504.317 604.293 505.265C603.379 506.214 602.133 506.772 600.817 506.821ZM594.612 499.502C594.042 499.535 593.506 499.784 593.114 500.199C592.722 500.614 592.504 501.163 592.504 501.734C592.504 502.305 592.722 502.854 593.114 503.269C593.506 503.684 594.042 503.933 594.612 503.965H600.817C601.387 503.933 601.923 503.684 602.315 503.269C602.707 502.854 602.925 502.305 602.925 501.734C602.925 501.163 602.707 500.614 602.315 500.199C601.923 499.784 601.387 499.535 600.817 499.502H594.612Z" fill="#262626"/>
<path d="M631.162 411.052H588.836C585.184 411.052 582.224 414.012 582.224 417.663V440.576C582.224 444.227 585.184 447.187 588.836 447.187H631.162C634.813 447.187 637.773 444.227 637.773 440.576V417.663C637.773 414.012 634.813 411.052 631.162 411.052Z" fill="#F9B800"/>
<path d="M609.999 438.248C608.188 438.248 606.419 437.712 604.913 436.706C603.408 435.7 602.235 434.27 601.542 432.598C600.849 430.925 600.668 429.085 601.021 427.309C601.374 425.534 602.246 423.903 603.526 422.622C604.806 421.342 606.437 420.47 608.213 420.117C609.989 419.764 611.829 419.945 613.502 420.638C615.174 421.331 616.604 422.504 617.61 424.009C618.615 425.515 619.152 427.285 619.152 429.095C619.15 431.522 618.185 433.849 616.469 435.565C614.753 437.281 612.426 438.246 609.999 438.248ZM609.999 422.797C608.753 422.797 607.536 423.167 606.5 423.859C605.464 424.551 604.657 425.534 604.181 426.685C603.704 427.836 603.579 429.102 603.822 430.323C604.065 431.545 604.665 432.667 605.546 433.548C606.426 434.429 607.549 435.028 608.77 435.271C609.992 435.514 611.258 435.39 612.409 434.913C613.559 434.436 614.543 433.629 615.235 432.594C615.927 431.558 616.296 430.34 616.296 429.095C616.294 427.425 615.63 425.825 614.45 424.644C613.269 423.463 611.668 422.799 609.999 422.797Z" fill="#262626"/>
<path d="M587.458 438.248H582.224V435.392H587.458C588.853 435.235 590.142 434.57 591.079 433.523C592.015 432.476 592.532 431.12 592.532 429.716C592.532 428.311 592.015 426.956 591.079 425.909C590.142 424.862 588.853 424.196 587.458 424.04H582.224V421.184H587.458C589.586 421.378 591.564 422.362 593.005 423.94C594.446 425.519 595.244 427.579 595.244 429.716C595.244 431.853 594.446 433.913 593.005 435.492C591.564 437.07 589.586 438.053 587.458 438.248Z" fill="#262626"/>
<path d="M637.859 438.291H632.604C630.468 438.105 628.479 437.126 627.03 435.546C625.581 433.965 624.777 431.899 624.777 429.755C624.777 427.611 625.581 425.545 627.03 423.965C628.479 422.384 630.468 421.405 632.604 421.219H637.838V424.075H632.604C631.202 424.225 629.904 424.887 628.962 425.936C628.019 426.985 627.497 428.345 627.497 429.755C627.497 431.165 628.019 432.526 628.962 433.574C629.904 434.623 631.202 435.286 632.604 435.435H637.838L637.859 438.291Z" fill="#262626"/>
<path d="M647.427 292.671H472.432C466.962 292.655 461.719 290.476 457.851 286.608C453.982 282.741 451.8 277.499 451.783 272.029V164.8C451.799 159.328 453.979 154.085 457.848 150.216C461.717 146.347 466.961 144.166 472.432 144.151H647.427C652.898 144.166 658.142 146.347 662.011 150.216C665.88 154.085 668.06 159.328 668.075 164.8V272.029C668.059 277.499 665.877 282.741 662.008 286.608C658.139 290.476 652.897 292.655 647.427 292.671ZM472.432 147.015C467.718 147.03 463.201 148.909 459.868 152.243C456.534 155.576 454.655 160.093 454.639 164.807V272.029C454.645 276.745 456.522 281.267 459.858 284.601C463.193 287.936 467.716 289.811 472.432 289.814H647.427C652.143 289.811 656.666 287.936 660.001 284.601C663.337 281.267 665.214 276.745 665.219 272.029V164.8C665.204 160.086 663.325 155.569 659.991 152.235C656.658 148.902 652.141 147.022 647.427 147.007L472.432 147.015Z" fill="#262626"/>
<path d="M542.854 172.883H487.919C482.26 172.883 477.673 177.47 477.673 183.129V247.631C477.673 253.29 482.26 257.877 487.919 257.877H542.854C548.513 257.877 553.1 253.29 553.1 247.631V183.129C553.1 177.47 548.513 172.883 542.854 172.883Z" fill="#FFE18B"/>
<path d="M516.815 218.415H513.959V257.884H516.815V218.415Z" fill="#262626"/>
<path d="M586.208 174.668H572.914C570.922 174.668 569.308 176.282 569.308 178.274V191.568C569.308 193.56 570.922 195.174 572.914 195.174H586.208C588.2 195.174 589.814 193.56 589.814 191.568V178.274C589.814 176.282 588.2 174.668 586.208 174.668Z" fill="#F9B800"/>
<path d="M614.968 174.668H601.674C599.682 174.668 598.068 176.282 598.068 178.274V191.568C598.068 193.56 599.682 195.174 601.674 195.174H614.968C616.96 195.174 618.574 193.56 618.574 191.568V178.274C618.574 176.282 616.96 174.668 614.968 174.668Z" fill="#F9B800"/>
<path d="M643.735 174.668H630.441C628.449 174.668 626.835 176.282 626.835 178.274V191.568C626.835 193.56 628.449 195.174 630.441 195.174H643.735C645.727 195.174 647.341 193.56 647.341 191.568V178.274C647.341 176.282 645.727 174.668 643.735 174.668Z" fill="#F9B800"/>
<path d="M647.348 215.28H570.729C570.35 215.28 569.987 215.13 569.719 214.862C569.451 214.594 569.301 214.231 569.301 213.852C569.301 213.474 569.451 213.11 569.719 212.843C569.987 212.575 570.35 212.424 570.729 212.424H647.348C647.727 212.424 648.09 212.575 648.358 212.843C648.626 213.11 648.776 213.474 648.776 213.852C648.776 214.231 648.626 214.594 648.358 214.862C648.09 215.13 647.727 215.28 647.348 215.28Z" fill="#262626"/>
<path d="M647.348 230.396H570.729C570.35 230.396 569.987 230.245 569.719 229.977C569.451 229.709 569.301 229.346 569.301 228.968C569.301 228.589 569.451 228.226 569.719 227.958C569.987 227.69 570.35 227.54 570.729 227.54H647.348C647.727 227.54 648.09 227.69 648.358 227.958C648.626 228.226 648.776 228.589 648.776 228.968C648.776 229.346 648.626 229.709 648.358 229.977C648.09 230.245 647.727 230.396 647.348 230.396Z" fill="#262626"/>
<path d="M620.68 245.511H570.7C570.321 245.511 569.958 245.361 569.69 245.093C569.423 244.825 569.272 244.462 569.272 244.083C569.272 243.705 569.423 243.341 569.69 243.074C569.958 242.806 570.321 242.655 570.7 242.655H620.68C621.059 242.655 621.422 242.806 621.69 243.074C621.958 243.341 622.108 243.705 622.108 244.083C622.108 244.462 621.958 244.825 621.69 245.093C621.422 245.361 621.059 245.511 620.68 245.511Z" fill="#262626"/>
<path d="M529.61 218.415H500.992C500.693 218.415 500.396 218.356 500.119 218.241C499.842 218.126 499.591 217.957 499.379 217.745C499.168 217.533 499 217.281 498.886 217.004C498.772 216.727 498.714 216.43 498.715 216.13V201.657C498.715 201.314 498.851 200.986 499.093 200.743C499.336 200.501 499.664 200.365 500.007 200.365H530.588C530.758 200.364 530.927 200.397 531.084 200.461C531.242 200.526 531.385 200.621 531.506 200.741C531.627 200.861 531.723 201.004 531.788 201.161C531.854 201.318 531.887 201.487 531.887 201.657V216.13C531.888 216.43 531.83 216.727 531.716 217.004C531.602 217.281 531.434 217.533 531.223 217.745C531.011 217.957 530.76 218.126 530.483 218.241C530.206 218.356 529.909 218.415 529.61 218.415Z" fill="#FFBB45"/>
<path d="M515.301 205.548C524.461 205.548 531.887 203.228 531.887 200.365C531.887 197.502 524.461 195.181 515.301 195.181C506.141 195.181 498.715 197.502 498.715 200.365C498.715 203.228 506.141 205.548 515.301 205.548Z" fill="#262626"/>
<path d="M401.689 494.633H256.033C255.654 494.633 255.291 494.482 255.023 494.215C254.756 493.947 254.605 493.584 254.605 493.205C254.605 492.826 254.756 492.463 255.023 492.195C255.291 491.927 255.654 491.777 256.033 491.777H401.689C402.068 491.777 402.431 491.927 402.699 492.195C402.967 492.463 403.117 492.826 403.117 493.205C403.117 493.584 402.967 493.947 402.699 494.215C402.431 494.482 402.068 494.633 401.689 494.633Z" fill="white"/>
</svg>
